grf
version=1
nRows=19
nColumns=37
inDegrees=no
endheader
time	ground_force_1_vx	ground_force_1_vy	ground_force_1_vz	ground_force_1_px	ground_force_1_py	ground_force_1_pz	ground_moment_1_mx	ground_moment_1_my	ground_moment_1_mz	ground_force_2_vx	ground_force_2_vy	ground_force_2_vz	ground_force_2_px	ground_force_2_py	ground_force_2_pz	ground_moment_2_mx	ground_moment_2_my	ground_moment_2_mz	ground_force_3_vx	ground_force_3_vy	ground_force_3_vz	ground_force_3_px	ground_force_3_py	ground_force_3_pz	ground_moment_3_mx	ground_moment_3_my	ground_moment_3_mz	ground_force_4_vx	ground_force_4_vy	ground_force_4_vz	ground_force_4_px	ground_force_4_py	ground_force_4_pz	ground_moment_4_mx	ground_moment_4_my	ground_moment_4_mz
      0.00000000	      0.00000000	     -0.00000000	      0.00000000	      0.00000000	      0.00000000	      0.00000000	      0.00000000	      0.00000000	      0.00000000	      5.21178865	     40.45116425	   -376.00598145	   -379.52171535	  -1142.21978572	      0.00000000	      0.00000000	      0.00000000	   3902.40200978	      3.34743338	    -37.57398253	   -382.87200928	   -380.09278226	   -721.37501107	      0.00000000	      0.00000000	     -0.00000000	  -4455.68053949	      0.00000000	     -0.00000000	      0.00000000	      0.00000000	      0.00000000	      0.00000000	      0.00000000	      0.00000000	      0.00000000
      0.01000000	      0.00000000	     -0.00000000	      0.00000000	      0.00000000	      0.00000000	      0.00000000	      0.00000000	      0.00000000	      0.00000000	      5.25288677	     41.59622955	   -379.44470215	   -379.71719055	  -1142.09005083	      0.00000000	      0.00000000	      0.00000000	   3908.11497594	      3.30269986	    -37.51120405	   -382.26751709	   -380.40181770	   -721.73807162	      0.00000000	     -0.00000000	     -0.00000000	  -4375.85472486	      0.00000000	     -0.00000000	      0.00000000	      0.00000000	      0.00000000	      0.00000000	      0.00000000	      0.00000000	      0.00000000
      0.02000000	      0.00000000	     -0.00000000	      0.00000000	      0.00000000	      0.00000000	      0.00000000	      0.00000000	      0.00000000	      0.00000000	      5.22560883	     41.87771606	   -381.43432617	   -379.99670753	  -1142.58375657	      0.00000000	      0.00000000	      0.00000000	   4017.38914258	      3.37100658	    -37.09510833	   -381.37899780	   -380.86150096	   -721.57449781	      0.00000000	     -0.00000000	     -0.00000000	  -4378.78084804	      0.00000000	     -0.00000000	      0.00000000	      0.00000000	      0.00000000	      0.00000000	      0.00000000	      0.00000000	      0.00000000
      0.03000000	      0.00000000	     -0.00000000	      0.00000000	      0.00000000	      0.00000000	      0.00000000	      0.00000000	      0.00000000	      0.00000000	      5.43514585	     42.68008804	   -382.84729004	   -379.70633281	  -1142.47064505	      0.00000000	      0.00000000	      0.00000000	   4071.45497505	      3.45977220	    -37.10730774	   -380.57516479	   -380.86703100	   -721.69348857	      0.00000000	      0.00000000	     -0.00000000	  -4365.22300556	      0.00000000	     -0.00000000	      0.00000000	      0.00000000	      0.00000000	      0.00000000	      0.00000000	      0.00000000	      0.00000000
      0.04000000	      0.00000000	     -0.00000000	      0.00000000	      0.00000000	      0.00000000	      0.00000000	      0.00000000	      0.00000000	      0.00000000	      5.23847246	     42.77076340	   -382.54077148	   -380.21033297	  -1141.96321305	      0.00000000	      0.00000000	      0.00000000	   4003.94813284	      3.70086303	    -36.56517824	   -379.07699585	   -380.73536379	   -721.87584914	      0.00000000	      0.00000000	     -0.00000000	  -4439.55836605	      0.00000000	     -0.00000000	      0.00000000	      0.00000000	      0.00000000	      0.00000000	      0.00000000	      0.00000000	      0.00000000
      0.05000000	      0.00000000	     -0.00000000	      0.00000000	      0.00000000	      0.00000000	      0.00000000	      0.00000000	      0.00000000	      0.00000000	      5.44225597	     43.96664429	   -386.40325928	   -379.14858571	  -1142.67151737	      0.00000000	      0.00000000	      0.00000000	   3967.16609778	      3.42157476	    -36.24966461	   -378.20605469	   -380.94147482	   -721.50695811	      0.00000000	      0.00000000	      0.00000000	  -4412.29903996	      0.00000000	     -0.00000000	      0.00000000	      0.00000000	      0.00000000	      0.00000000	      0.00000000	      0.00000000	      0.00000000
      0.06000000	      0.00000000	     -0.00000000	      0.00000000	      0.00000000	      0.00000000	      0.00000000	      0.00000000	      0.00000000	      0.00000000	      5.36476898	     44.36174393	   -387.99313354	   -379.09376542	  -1142.84216029	      0.00000000	      0.00000000	      0.00000000	   4137.93576505	      3.53512258	    -36.08559449	   -376.73461914	   -380.44769257	   -721.59062614	      0.00000000	      0.00000000	     -0.00000000	  -4428.92799644	      0.00000000	     -0.00000000	      0.00000000	      0.00000000	      0.00000000	      0.00000000	      0.00000000	      0.00000000	      0.00000000
      0.07000000	      0.00000000	     -0.00000000	      0.00000000	      0.00000000	      0.00000000	      0.00000000	      0.00000000	      0.00000000	      0.00000000	      5.07938290	     45.02939606	   -389.27777100	   -378.86062290	  -1143.36896001	      0.00000000	      0.00000000	      0.00000000	   4079.08086969	      3.44141866	    -35.34859878	   -374.21868896	   -380.24965585	   -721.83930663	      0.00000000	     -0.00000000	      0.00000000	  -4467.42331935	      0.00000000	     -0.00000000	      0.00000000	      0.00000000	      0.00000000	      0.00000000	      0.00000000	      0.00000000	      0.00000000
      0.08000000	      0.00000000	     -0.00000000	      0.00000000	      0.00000000	      0.00000000	      0.00000000	      0.00000000	      0.00000000	      0.00000000	      4.83159399	     45.54356384	   -388.59414673	   -378.66068065	  -1142.68903455	      0.00000000	      0.00000000	      0.00000000	   4047.88715493	      3.06650121	    -34.69850948	   -371.10107422	   -380.82323916	   -722.51758272	      0.00000000	      0.00000000	     -0.00000000	  -4443.68227867	      0.00000000	     -0.00000000	      0.00000000	      0.00000000	      0.00000000	      0.00000000	      0.00000000	      0.00000000	      0.00000000
      0.09000000	      0.00000000	     -0.00000000	      0.00000000	      0.00000000	      0.00000000	      0.00000000	      0.00000000	      0.00000000	      0.00000000	      4.88135290	     45.46092987	   -389.25125122	   -378.21432389	  -1143.11601425	      0.00000000	      0.00000000	      0.00000000	   4008.64575343	      3.00277790	    -34.44371059	   -369.45544434	   -379.74519349	   -721.94406718	      0.00000000	      0.00000000	      0.00000000	  -4417.87147771	      0.00000000	     -0.00000000	      0.00000000	      0.00000000	      0.00000000	      0.00000000	      0.00000000	      0.00000000	      0.00000000
      0.10000000	      0.00000000	     -0.00000000	      0.00000000	      0.00000000	      0.00000000	      0.00000000	      0.00000000	      0.00000000	      0.00000000	      4.53808022	     45.86341476	   -391.38461304	   -377.56283059	  -1143.56218552	      0.00000000	      0.00000000	      0.00000000	   4009.69131585	      2.64984906	    -34.02669548	   -366.95837402	   -379.74712666	   -722.53409759	      0.00000000	      0.00000000	     -0.00000000	  -4332.38479974	      0.00000000	     -0.00000000	      0.00000000	      0.00000000	      0.00000000	      0.00000000	      0.00000000	      0.00000000	      0.00000000
      0.11000000	      0.00000000	     -0.00000000	      0.00000000	      0.00000000	      0.00000000	      0.00000000	      0.00000000	      0.00000000	      0.00000000	      4.03064680	     45.92393112	   -389.64788818	   -378.34989492	  -1142.92981193	      0.00000000	      0.00000000	     -0.00000000	   3888.97614820	      2.56947369	    -33.33034538	   -366.22790527	   -379.19051456	   -721.36041204	      0.00000000	      0.00000000	     -0.00000000	  -4378.84932217	      0.00000000	     -0.00000000	      0.00000000	      0.00000000	      0.00000000	      0.00000000	      0.00000000	      0.00000000	      0.00000000
      0.12000000	      0.00000000	     -0.00000000	      0.00000000	      0.00000000	      0.00000000	      0.00000000	      0.00000000	      0.00000000	      0.00000000	      3.83063793	     45.91875458	   -389.95501709	   -377.84563743	  -1142.66617494	      0.00000000	      0.00000000	     -0.00000000	   3911.86939802	      2.41721961	    -33.09292242	   -363.99172974	   -379.52673308	   -722.79445945	      0.00000000	     -0.00000000	     -0.00000000	  -4434.40268676	      0.00000000	     -0.00000000	      0.00000000	      0.00000000	      0.00000000	      0.00000000	      0.00000000	      0.00000000	      0.00000000
      0.13000000	      0.00000000	     -0.00000000	      0.00000000	      0.00000000	      0.00000000	      0.00000000	      0.00000000	      0.00000000	      0.00000000	      3.57706642	     46.14224243	   -390.73767090	   -377.37226294	  -1142.63873920	      0.00000000	      0.00000000	      0.00000000	   3925.49936042	      2.26754307	    -32.76736470	   -363.39056396	   -379.15678560	   -722.21401739	      0.00000000	     -0.00000000	     -0.00000000	  -4381.14713132	      0.00000000	     -0.00000000	      0.00000000	      0.00000000	      0.00000000	      0.00000000	      0.00000000	      0.00000000	      0.00000000
      0.14000000	      0.00000000	     -0.00000000	      0.00000000	      0.00000000	      0.00000000	      0.00000000	      0.00000000	      0.00000000	      0.00000000	      3.50054121	     45.87357712	   -390.54598999	   -377.10772624	  -1142.00666783	      0.00000000	      0.00000000	      0.00000000	   4045.51583962	      2.29599070	    -32.79584523	   -363.77474976	   -378.50223718	   -721.64179828	      0.00000000	      0.00000000	     -0.00000000	  -4450.82105538	      0.00000000	     -0.00000000	      0.00000000	      0.00000000	      0.00000000	      0.00000000	      0.00000000	      0.00000000	      0.00000000
      0.15000000	      0.00000000	     -0.00000000	      0.00000000	      0.00000000	      0.00000000	      0.00000000	      0.00000000	      0.00000000	      0.00000000	      3.37953997	     46.19056702	   -391.79602051	   -377.25955035	  -1142.40044236	      0.00000000	      0.00000000	     -0.00000000	   3993.39265443	      2.33533910	    -32.41921255	   -362.55755615	   -378.83110644	   -721.73605064	      0.00000000	     -0.00000000	     -0.00000000	  -4375.44366219	      0.00000000	     -0.00000000	      0.00000000	      0.00000000	      0.00000000	      0.00000000	      0.00000000	      0.00000000	      0.00000000
      0.16000000	      0.00000000	     -0.00000000	      0.00000000	      0.00000000	      0.00000000	      0.00000000	      0.00000000	      0.00000000	      0.00000000	      3.23054290	     46.38725281	   -393.67996216	   -375.99596809	  -1142.68024694	      0.00000000	      0.00000000	     -0.00000000	   4001.18059891	      1.99095003	    -32.24745196	   -362.22497559	   -378.20577988	   -720.97590262	      0.00000000	      0.00000000	     -0.00000000	  -4409.49886660	      0.00000000	     -0.00000000	      0.00000000	      0.00000000	      0.00000000	      0.00000000	      0.00000000	      0.00000000	      0.00000000
      0.17000000	      0.00000000	     -0.00000000	      0.00000000	      0.00000000	      0.00000000	      0.00000000	      0.00000000	      0.00000000	      0.00000000	      2.87457132	     46.66973495	   -393.34429932	   -376.70560611	  -1143.10754384	      0.00000000	      0.00000000	      0.00000000	   3967.71671346	      1.97128277	    -32.12948244	   -360.59649658	   -378.48290590	   -721.71096195	      0.00000000	      0.00000000	     -0.00000000	  -4384.11343595	      0.00000000	     -0.00000000	      0.00000000	      0.00000000	      0.00000000	      0.00000000	      0.00000000	      0.00000000	      0.00000000
      0.18000000	      0.00000000	     -0.00000000	      0.00000000	      0.00000000	      0.00000000	      0.00000000	      0.00000000	      0.00000000	      0.00000000	      2.59688663	     46.73423767	   -392.14825439	   -375.69019870	  -1142.59966362	      0.00000000	      0.00000000	      0.00000000	   3943.59866960	      1.70471779	    -32.27679458	   -361.72549438	   -377.41080495	   -720.90813859	      0.00000000	     -0.00000000	     -0.00000000	  -4371.60319263	      0.00000000	     -0.00000000	      0.00000000	      0.00000000	      0.00000000	      0.00000000	      0.00000000	      0.00000000	      0.00000000
